/* XPM */
static char * break_xpm[] = {
"32 32 3 1",
" 	c None",
".	c #ffffff",
"a c #000000",
"                                ",
"                                ",
"          aaaa     aaaa         ",
"         a....a   a....a        ",
"        a.....a  a.....a        ",
"        a...aa   a...aa         ",
"        a..a     a..a           ",
"        a...a    a...a          ",
"         a...a    a...a         ",
"          a...a    a...a        ",
"         a....a   a....a        ",
"        a....a   a....a         ",
"        a...a    a...a          ",
"         aaa      aaa           ",
"                                ",
"    aaaaaaaaaaaaaaaaaaaaaaaa    ",
"   a........................a   ",
"   a........................a   ",
"   a........................a   ",
"   a........................a   ",
"   a........................a   ",
"    a......................a    ",
"    a......................a    ",
"     a....................a     ",
"     a....................a     ",
"      a..................a      ",
"       a................a       ",
"   aaaaaaaaaaaa..aaaaaaaaaaaa   ",
"  a..........................a  ",
"  a..........................a  ",
"   aaaaaaaaaaaaaaaaaaaaaaaaaa   ",
"                                "};
