/* XPM */
static char * interrupted_xpm[] = {
"32 32 3 1",
" 	c None",
".	c #ff0000",
"a c #000000",
"                                ",
"                                ",
"                                ",
"     aa                  aa     ",
"    a..a                a..a    ",
"   a....a              a....a   ",
"   a.....a            a.....a   ",
"    a.....a          a.....a    ",
"     a.....a        a.....a     ",
"      a.....a      a.....a      ",
"       a.....a    a.....a       ",
"        a.....a  a.....a        ",
"         a.....aa.....a         ",
"          a..........a          ",
"           a........a           ",
"            a......a            ",
"            a......a            ",
"           a........a           ",
"          a..........a          ",
"         a.....aa.....a         ",
"        a.....a  a.....a        ",
"       a.....a    a.....a       ",
"      a.....a      a.....a      ",
"     a.....a        a.....a     ",
"    a.....a          a.....a    ",
"   a.....a            a.....a   ",
"   a....a              a....a   ",
"    a..a                a..a    ",
"     aa                  aa     ",
"                                ",
"                                ",
"                                "};
