/* XPM */
static char * start_xpm[] = {
"32 32 3 1",
" 	c None",
".	c #008000",
"a c #000000",
"                                ",
"                                ",
"                                ",
"    aa                          ",
"   a..aa                        ",
"   a....aa                      ",
"   a......aa                    ",
"   a........aa                  ",
"   a..........aa                ",
"   a............aa              ",
"   a..............aa            ",
"   a................aa          ",
"   a..................aa        ",
"   a....................aa      ",
"   a......................aa    ",
"   a........................a   ",
"   a........................a   ",
"   a......................aa    ",
"   a....................aa      ",
"   a..................aa        ",
"   a................aa          ",
"   a..............aa            ",
"   a............aa              ",
"   a..........aa                ",
"   a........aa                  ",
"   a......aa                    ",
"   a....aa                      ",
"   a..aa                        ",
"    aa                          ",
"                                ",
"                                ",
"                                "};
